<svg xmlns="http://www.w3.org/2000/svg" width="300" height="300" viewBox="0 0 300 300">
  <defs>
    <linearGradient id="g" x1="0" y1="0" x2="1" y2="1">
      <stop offset="0" stop-color="#ffb8d9"/>
      <stop offset="1" stop-color="#ff6fae"/>
    </linearGradient>
  </defs>
  <rect width="300" height="300" rx="20" fill="url(#g)"/>
  <g fill="#fff">
    <rect x="30" y="30" width="70" height="70" rx="10"/>
    <rect x="200" y="30" width="70" height="70" rx="10"/>
    <rect x="30" y="200" width="70" height="70" rx="10"/>
    <rect x="200" y="200" width="70" height="70" rx="10"/>
  </g>
  <g fill="#ff2b6e">
    <circle cx="150" cy="150" r="20"/>
    <rect x="120" y="120" width="20" height="80"/>
    <rect x="160" y="100" width="20" height="60"/>
    <rect x="90" y="170" width="40" height="20"/>
  </g>
  <g>
    <path d="M170 80c-8 0-12 6-15 10 10 4 20 0 20-10z" fill="#90EE90"/>
    <circle cx="150" cy="90" r="40" fill="#ff8fc2" opacity=".3"/>
  </g>
</svg>

