<svg xmlns="http://www.w3.org/2000/svg" width="400" height="400" viewBox="0 0 400 400"><rect width="400" height="400" rx="40" fill="#ffe6f3"/><g transform="translate(60,40)"><path d="M160 30c-12 0-20 10-24 18 18 8 32 2 34-18z" fill="#90EE90"/><path d="M120 40c-60 0-100 50-90 105 14 70 70 100 95 100s80-22 95-95c11-64-40-110-100-110z" fill="#ff8fc2" stroke="#ff2b6e" stroke-width="3"/><circle cx="140" cy="160" r="14" fill="#fff"/><circle cx="200" cy="160" r="14" fill="#fff"/><circle cx="144" cy="158" r="6" fill="#ff2b6e"/><circle cx="204" cy="158" r="6" fill="#ff2b6e"/><ellipse cx="170" cy="200" rx="18" ry="10" fill="#fff" opacity=".8"/></g></svg>

